<svg xmlns="http://www.w3.org/2000/svg" viewBox="0 0 500 400" fill="none">
  <defs>
    <linearGradient id="sky-grad" x1="0" y1="0" x2="0" y2="1">
      <stop offset="0" stop-color="#1a2540"/>
      <stop offset="1" stop-color="#0a1628"/>
    </linearGradient>
    <linearGradient id="sea-grad" x1="0" y1="0" x2="0" y2="1">
      <stop offset="0" stop-color="#1f9eff" stop-opacity="0.3"/>
      <stop offset="1" stop-color="#0d1f3c" stop-opacity="0.8"/>
    </linearGradient>
  </defs>

  <rect width="500" height="400" fill="url(#sky-grad)"/>

  <g opacity="0.4">
    <circle cx="80" cy="60" r="2" fill="#58a6ff"/>
    <circle cx="180" cy="40" r="1.5" fill="#58a6ff"/>
    <circle cx="300" cy="70" r="2" fill="#58a6ff"/>
    <circle cx="420" cy="50" r="1.5" fill="#58a6ff"/>
    <circle cx="120" cy="90" r="1" fill="#58a6ff"/>
    <circle cx="380" cy="100" r="1" fill="#58a6ff"/>
  </g>

  <path d="M 0 280 Q 125 270 250 280 T 500 280 L 500 400 L 0 400 Z" fill="url(#sea-grad)"/>
  <path d="M 0 310 Q 125 305 250 310 T 500 310" stroke="#58a6ff" stroke-width="1" fill="none" opacity="0.5"/>
  <path d="M 0 340 Q 125 335 250 340 T 500 340" stroke="#58a6ff" stroke-width="1" fill="none" opacity="0.3"/>

  <g transform="translate(150, 180)">
    <rect x="0" y="20" width="200" height="80" rx="6" fill="#326CE5" stroke="#1a4aaf" stroke-width="2"/>
    <rect x="0" y="20" width="200" height="20" fill="#1a4aaf"/>
    <text x="100" y="35" text-anchor="middle" font-family="JetBrains Mono, monospace" font-size="11" font-weight="700" fill="white">container ship</text>

    <g transform="translate(15, 50)">
      <rect x="0" y="0" width="30" height="20" rx="2" fill="#3fb950" opacity="0.9"/>
      <rect x="0" y="22" width="30" height="20" rx="2" fill="#d29922" opacity="0.9"/>
    </g>
    <g transform="translate(50, 50)">
      <rect x="0" y="0" width="30" height="20" rx="2" fill="#f59e0b" opacity="0.9"/>
      <rect x="0" y="22" width="30" height="20" rx="2" fill="#58a6ff" opacity="0.9"/>
    </g>
    <g transform="translate(85, 50)">
      <rect x="0" y="0" width="30" height="20" rx="2" fill="#3fb950" opacity="0.9"/>
      <rect x="0" y="22" width="30" height="20" rx="2" fill="#d29922" opacity="0.9"/>
    </g>
    <g transform="translate(120, 50)">
      <rect x="0" y="0" width="30" height="20" rx="2" fill="#58a6ff" opacity="0.9"/>
      <rect x="0" y="22" width="30" height="20" rx="2" fill="#3fb950" opacity="0.9"/>
    </g>
    <g transform="translate(155, 50)">
      <rect x="0" y="0" width="30" height="20" rx="2" fill="#f59e0b" opacity="0.9"/>
      <rect x="0" y="22" width="30" height="20" rx="2" fill="#d29922" opacity="0.9"/>
    </g>
  </g>

  <g transform="translate(80, 280)">
    <rect x="0" y="0" width="340" height="15" rx="3" fill="#1a2540" stroke="#326CE5" stroke-width="1.5"/>
  </g>

  <g transform="translate(420, 200)">
    <rect x="0" y="0" width="3" height="80" fill="#1a2540"/>
    <path d="M 3 0 L 30 25 L 3 25 Z" fill="#f59e0b"/>
    <circle cx="3" cy="0" r="3" fill="#d29922"/>
  </g>

  <g transform="translate(60, 200)">
    <circle cx="0" cy="0" r="15" fill="#f59e0b" stroke="#d29922" stroke-width="2"/>
    <circle cx="0" cy="0" r="8" fill="#fff"/>
    <text x="0" y="3" text-anchor="middle" font-family="Plus Jakarta Sans, sans-serif" font-size="9" font-weight="700" fill="#d29922">🐳</text>
  </g>

  <g transform="translate(380, 90)">
    <circle cx="0" cy="0" r="18" fill="#326CE5" opacity="0.2"/>
    <text x="0" y="6" text-anchor="middle" font-family="Plus Jakarta Sans, sans-serif" font-size="20">⚓</text>
  </g>
</svg>
